{
  "accessors": [
    {
      "bufferView": 2,
      "componentType": 5126,
      "count": 5414,
      "max": [
        1.79551100730896,
        1.6110459566116333,
        -0.6515340209007263
      ],
      "min": [
        -0.49258801341056824,
        -1.6110459566116333,
        -1.5928889513015747
      ],
      "type": "VEC3"
    },
    {
      "bufferView": 2,
      "byteOffset": 64968,
      "componentType": 5126,
      "count": 5414,
      "max": [
        0.9991744756698608,
        0.9999139904975891,
        0.999468982219696
      ],
      "min": [
        -0.9936020970344543,
        -0.9999139904975891,
        -0.9980895519256592
      ],
      "type": "VEC3"
    },
    {
      "bufferView": 1,
      "componentType": 5126,
      "count": 5414,
      "max": [
        1.0,
        25.45452880859375
      ],
      "min": [
        0.0,
        0.5
      ],
      "type": "VEC2"
    },
    {
      "bufferView": 0,
      "componentType": 5125,
      "count": 21012,
      "type": "SCALAR"
    },
    {
      "bufferView": 2,
      "byteOffset": 129936,
      "componentType": 5126,
      "count": 9124,
      "max": [
        2.1673998832702637,
        1.8654710054397583,
        1.8495479822158813
      ],
      "min": [
        -2.193897008895874,
        -1.9727669954299927,
        -1.3331550359725952
      ],
      "type": "VEC3"
    },
    {
      "bufferView": 2,
      "byteOffset": 239424,
      "componentType": 5126,
      "count": 9124,
      "max": [
        0.9997909069061279,
        0.998924732208252,
        0.9999414682388306
      ],
      "min": [
        -0.9993981122970581,
        -0.9998008608818054,
        -0.9994691014289856
      ],
      "type": "VEC3"
    },
    {
      "bufferView": 1,
      "byteOffset": 43312,
      "componentType": 5126,
      "count": 9124,
      "max": [
        1.453521966934204,
        22.08699607849121
      ],
      "min": [
        0.0,
        -1.8527649641036987
      ],
      "type": "VEC2"
    },
    {
      "bufferView": 0,
      "byteOffset": 84048,
      "componentType": 5125,
      "count": 38088,
      "type": "SCALAR"
    },
    {
      "bufferView": 2,
      "byteOffset": 348912,
      "componentType": 5126,
      "count": 7706,
      "max": [
        2.1673998832702637,
        1.9727669954299927,
        1.8495479822158813
      ],
      "min": [
        -2.193897008895874,
        -1.8489660024642944,
        -1.4678549766540527
      ],
      "type": "VEC3"
    },
    {
      "bufferView": 2,
      "byteOffset": 441384,
      "componentType": 5126,
      "count": 7706,
      "max": [
        0.9998367428779602,
        1.0,
        0.9999727606773376
      ],
      "min": [
        -0.9997934699058533,
        -1.0,
        -0.9999822378158569
      ],
      "type": "VEC3"
    },
    {
      "bufferView": 1,
      "byteOffset": 116304,
      "componentType": 5126,
      "count": 7706,
      "max": [
        1.4488719701766968,
        62.331329345703125
      ],
      "min": [
        -0.08140099793672562,
        -1.8527649641036987
      ],
      "type": "VEC2"
    },
    {
      "bufferView": 0,
      "byteOffset": 236400,
      "componentType": 5125,
      "count": 32112,
      "type": "SCALAR"
    }
  ],
  "asset": {
    "extras": {
      "author": "ryannsoup (https://sketchfab.com/ryannsoup)",
      "license": "CC-BY-4.0 (http://creativecommons.org/licenses/by/4.0/)",
      "source": "https://sketchfab.com/3d-models/final-brain-ryann-davis-2401586a49524fecaad411ea7d5a01e5",
      "title": "Final Brain Ryann Davis"
    },
    "generator": "Sketchfab-12.63.0",
    "version": "2.0"
  },
  "bufferViews": [
    {
      "buffer": 0,
      "byteLength": 364848,
      "name": "floatBufferViews",
      "target": 34963
    },
    {
      "buffer": 0,
      "byteLength": 177952,
      "byteOffset": 364848,
      "byteStride": 8,
      "name": "floatBufferViews",
      "target": 34962
    },
    {
      "buffer": 0,
      "byteLength": 533856,
      "byteOffset": 542800,
      "byteStride": 12,
      "name": "floatBufferViews",
      "target": 34962
    }
  ],
  "buffers": [
    {
      "byteLength": 1076656,
      "uri": "scene.bin"
    }
  ],
  "extensionsUsed": [
    "KHR_materials_clearcoat"
  ],
  "images": [
    {
      "uri": "textures/blinn5SG_metallicRoughness.png"
    },
    {
      "uri": "textures/blinn5SG_clearcoat_normal.png"
    },
    {
      "uri": "textures/phongE1SG_baseColor.png"
    },
    {
      "uri": "textures/phongE1SG_metallicRoughness.png"
    }
  ],
  "materials": [
    {
      "doubleSided": true,
      "extensions": {
        "KHR_materials_clearcoat": {
          "clearcoatFactor": 1.0,
          "clearcoatNormalTexture": {
            "index": 1,
            "scale": 0.0
          },
          "clearcoatRoughnessFactor": 0.8392408536305636,
          "clearcoatRoughnessTexture": {
            "index": 0
          }
        }
      },
      "name": "blinn5SG",
      "pbrMetallicRoughness": {
        "baseColorFactor": [
          0.6687538054332586,
          0.26690095607635406,
          0.15749192924787028,
          1.0
        ],
        "metallicFactor": 0.0,
        "metallicRoughnessTexture": {
          "index": 0
        },
        "roughnessFactor": 0.0
      }
    },
    {
      "doubleSided": true,
      "extensions": {
        "KHR_materials_clearcoat": {
          "clearcoatFactor": 1.0,
          "clearcoatNormalTexture": {
            "index": 1,
            "scale": 0.0
          },
          "clearcoatRoughnessFactor": 0.9606280667015387,
          "clearcoatRoughnessTexture": {
            "index": 3
          }
        }
      },
      "name": "phongE1SG",
      "pbrMetallicRoughness": {
        "baseColorTexture": {
          "index": 2
        },
        "metallicFactor": 0.0,
        "metallicRoughnessTexture": {
          "index": 3
        },
        "roughnessFactor": 0.0
      }
    }
  ],
  "meshes": [
    {
      "name": "Object_0",
      "primitives": [
        {
          "attributes": {
            "NORMAL": 1,
            "POSITION": 0,
            "TEXCOORD_0": 2
          },
          "indices": 3,
          "material": 0,
          "mode": 4
        }
      ]
    },
    {
      "name": "Object_1",
      "primitives": [
        {
          "attributes": {
            "NORMAL": 5,
            "POSITION": 4,
            "TEXCOORD_0": 6
          },
          "indices": 7,
          "material": 1,
          "mode": 4
        }
      ]
    },
    {
      "name": "Object_2",
      "primitives": [
        {
          "attributes": {
            "NORMAL": 9,
            "POSITION": 8,
            "TEXCOORD_0": 10
          },
          "indices": 11,
          "material": 1,
          "mode": 4
        }
      ]
    }
  ],
  "nodes": [
    {
      "children": [
        1
      ],
      "matrix": [
        1.0,
        0.0,
        0.0,
        0.0,
        0.0,
        2.220446049250313e-16,
        -1.0,
        0.0,
        0.0,
        1.0,
        2.220446049250313e-16,
        0.0,
        0.0,
        0.0,
        0.0,
        1.0
      ],
      "name": "Sketchfab_model"
    },
    {
      "children": [
        2,
        3,
        4
      ],
      "name": "Final_brain.obj.cleaner.materialmerger.gles"
    },
    {
      "mesh": 0,
      "name": "Object_2"
    },
    {
      "mesh": 1,
      "name": "Object_3"
    },
    {
      "mesh": 2,
      "name": "Object_4"
    }
  ],
  "samplers": [
    {
      "magFilter": 9729,
      "minFilter": 9987,
      "wrapS": 10497,
      "wrapT": 10497
    }
  ],
  "scene": 0,
  "scenes": [
    {
      "name": "Sketchfab_Scene",
      "nodes": [
        0
      ]
    }
  ],
  "textures": [
    {
      "sampler": 0,
      "source": 0
    },
    {
      "sampler": 0,
      "source": 1
    },
    {
      "sampler": 0,
      "source": 2
    },
    {
      "sampler": 0,
      "source": 3
    }
  ]
}
